<svg width="512" height="512" version="1.1" viewBox="0 0 512 512" xmlns="http://www.w3.org/2000/svg"><defs><mask id="cut" maskUnits="userSpaceOnUse" x="0" y="0" width="512" height="512"><rect width="512" height="512" fill="#fff"/><path d="M 52 452 L 190 300 L 280 360 L 446 92" fill="none" stroke="#000" stroke-width="74" stroke-linecap="round" stroke-linejoin="round"/><path d="M 338.1 122.1 L 450.2 85.2 L 467.1 202.0" fill="none" stroke="#000" stroke-width="74" stroke-linecap="round" stroke-linejoin="round"/></mask></defs><path d="M 40.0 150.0 L 40.0 230.5 L 91.8 230.5 L 91.8 311.0 L 143.7 311.0 L 143.7 391.5 L 195.5 391.5 L 195.5 472.0 L 316.5 472.0 L 316.5 391.5 L 368.3 391.5 L 368.3 311.0 L 420.2 311.0 L 420.2 230.5 L 472.0 230.5 L 472.0 150.0 Z" fill="none" stroke="#000000" stroke-width="22" stroke-linejoin="miter" mask="url(#cut)"/><path d="M 52 452 L 190 300 L 280 360 L 446 92" fill="none" stroke="#0065ff" stroke-width="38" stroke-linecap="round" stroke-linejoin="round"/><path d="M 338.1 122.1 L 450.2 85.2 L 467.1 202.0" fill="none" stroke="#0065ff" stroke-width="38" stroke-linecap="round" stroke-linejoin="round"/></svg>